<svg width="72.000000" height="72.000000" viewBox="0 0 72 72" fill="none" xmlns="http://www.w3.org/2000/svg" xmlns:xlink="http://www.w3.org/1999/xlink">
	<desc>
			Created with Pixso.
	</desc>
	<defs>
		<clipPath id="clip11_804">
			<rect id="branding_icon" rx="-0.500000" width="71.000000" height="71.000000" transform="translate(0.500000 0.500000)" fill="white" fill-opacity="0"/>
		</clipPath>
	</defs>
	<g opacity="0.700000">
		<rect id="branding_icon" rx="-0.500000" width="71.000000" height="71.000000" transform="translate(0.500000 0.500000)" fill="#FFFFFF" fill-opacity="0"/>
		<g clip-path="url(#clip11_804)">
			<path id="Vector" d="M67.31 15.88L56.11 4.69C55.9 4.48 55.63 4.37 55.34 4.37C55.06 4.37 54.78 4.48 54.58 4.69L34.65 24.61L22.62 12.78C22.61 12.77 22.6 12.76 22.59 12.75C22.55 12.71 22.51 12.68 22.46 12.65C22.44 12.64 22.42 12.62 22.4 12.61C22.35 12.58 22.29 12.55 22.23 12.53C22.22 12.53 22.2 12.52 22.19 12.51L5.9 7.42C5.71 7.36 5.51 7.36 5.31 7.4C5.12 7.45 4.95 7.55 4.81 7.69C4.67 7.83 4.57 8 4.52 8.2C4.48 8.39 4.48 8.59 4.54 8.78L9.63 25.07C9.66 25.17 9.71 25.26 9.77 25.34C9.79 25.37 9.81 25.39 9.83 25.42C9.86 25.45 9.88 25.49 9.91 25.52L21.92 37.34L4.69 54.58C4.48 54.78 4.37 55.06 4.37 55.34C4.37 55.63 4.48 55.9 4.69 56.11L15.89 67.31C15.99 67.41 16.1 67.49 16.24 67.54C16.37 67.6 16.51 67.62 16.65 67.62C16.79 67.62 16.93 67.6 17.06 67.54C17.19 67.49 17.31 67.41 17.41 67.31L34.83 49.89L48.92 63.58C49.1 63.76 49.33 63.84 49.56 63.87C51.18 65.38 53.32 66.23 55.54 66.22C57.9 66.22 60.12 65.31 61.78 63.64C65.17 60.25 65.21 54.76 61.91 51.31C61.86 51.13 61.76 50.96 61.62 50.83L47.49 37.23L67.31 17.41C67.51 17.21 67.62 16.93 67.62 16.65C67.62 16.36 67.51 16.09 67.31 15.88ZM20.53 14.26L19.72 17L15.96 18.11C15.79 18.16 15.63 18.25 15.5 18.38C15.37 18.51 15.28 18.67 15.23 18.84L14.12 22.6L11.38 23.41L7.22 10.1L20.53 14.26ZM16.65 65.02L6.98 55.34L11.05 51.27L15.88 56.11C16.09 56.32 16.37 56.42 16.65 56.42C16.92 56.42 17.2 56.32 17.41 56.11C17.61 55.91 17.73 55.63 17.73 55.34C17.73 55.06 17.61 54.78 17.41 54.58L12.57 49.75L16.54 45.78L21.37 50.62C21.58 50.83 21.86 50.93 22.14 50.93C22.41 50.93 22.69 50.83 22.9 50.62C23.1 50.42 23.22 50.14 23.22 49.85C23.22 49.57 23.1 49.29 22.9 49.09L18.06 44.25L23.47 38.85L33.28 48.38L16.65 65.02ZM60.25 62.11C57.83 64.53 54.01 64.69 51.4 62.61L60.75 53.26C62.83 55.87 62.67 59.7 60.25 62.11ZM49.66 61.29L24.14 36.49L12.73 25.26L15.3 24.51C15.47 24.46 15.63 24.36 15.76 24.24C15.88 24.11 15.98 23.95 16.03 23.78L17.14 20.02L20.9 18.91C21.07 18.86 21.23 18.76 21.36 18.64C21.49 18.51 21.58 18.35 21.63 18.18L22.4 15.58L45.18 38L59.33 51.62L49.66 61.29ZM45.94 35.72L36.19 26.13L41.74 20.58L46.57 25.42C46.78 25.63 47.06 25.73 47.34 25.73C47.61 25.73 47.89 25.63 48.1 25.42C48.3 25.22 48.42 24.94 48.42 24.65C48.42 24.37 48.3 24.09 48.1 23.89L43.26 19.06L47.77 14.55L52.6 19.39C52.81 19.6 53.09 19.7 53.37 19.7C53.64 19.7 53.92 19.6 54.13 19.39C54.33 19.19 54.45 18.91 54.45 18.62C54.45 18.34 54.33 18.06 54.13 17.86L49.29 13.02L55.34 6.98L65.01 16.65L45.94 35.72Z" fill="#DBDBDB" fill-opacity="1.000000" fill-rule="evenodd"/>
		</g>
	</g>
</svg>
