<svg width="72.000000" height="72.000000" viewBox="0 0 72 72" fill="none" xmlns="http://www.w3.org/2000/svg" xmlns:xlink="http://www.w3.org/1999/xlink">
	<desc>
			Created with Pixso.
	</desc>
	<defs>
		<clipPath id="clip11_797">
			<rect id="diagnostics_icon" rx="-0.500000" width="71.000000" height="71.000000" transform="translate(0.500000 0.500000)" fill="white" fill-opacity="0"/>
		</clipPath>
	</defs>
	<g opacity="0.700000">
		<rect id="diagnostics_icon" rx="-0.500000" width="71.000000" height="71.000000" transform="translate(0.500000 0.500000)" fill="#FFFFFF" fill-opacity="0"/>
		<g clip-path="url(#clip11_797)">
			<path id="Vector" d="M26.8 23.3L25.04 33.6C25 33.8 25.02 34.01 25.1 34.2C25.18 34.39 25.31 34.55 25.48 34.67C25.64 34.79 25.84 34.86 26.05 34.87C26.25 34.88 26.46 34.83 26.63 34.73L35.85 29.87L45.1 34.73C45.27 34.82 45.48 34.86 45.68 34.85C45.88 34.84 46.07 34.77 46.23 34.65C46.4 34.53 46.53 34.37 46.6 34.18C46.68 33.99 46.7 33.79 46.67 33.59L44.9 23.29L52.37 16.01C52.52 15.87 52.62 15.69 52.67 15.49C52.72 15.3 52.71 15.09 52.65 14.9C52.59 14.71 52.47 14.54 52.32 14.41C52.16 14.28 51.98 14.19 51.78 14.16L41.44 12.67L36.82 3.31C36.73 3.13 36.59 2.97 36.42 2.87C36.25 2.76 36.05 2.7 35.85 2.7C35.65 2.7 35.45 2.76 35.28 2.87C35.11 2.97 34.97 3.13 34.88 3.31L30.24 12.67L19.92 14.16C19.73 14.19 19.54 14.28 19.38 14.41C19.23 14.54 19.11 14.71 19.05 14.9C18.99 15.09 18.98 15.3 19.03 15.49C19.08 15.69 19.18 15.87 19.33 16.01L26.8 23.3ZM31.12 14.72C31.29 14.69 31.46 14.63 31.6 14.52C31.74 14.42 31.86 14.29 31.93 14.13L35.84 6.21L39.74 14.13C39.82 14.29 39.93 14.42 40.07 14.52C40.21 14.63 40.38 14.69 40.55 14.72L49.29 15.99L42.98 22.15C42.85 22.27 42.76 22.42 42.71 22.59C42.65 22.76 42.64 22.93 42.67 23.11L44.16 31.8L36.35 27.69C36.2 27.61 36.03 27.57 35.85 27.57C35.68 27.57 35.5 27.61 35.35 27.69L27.54 31.8L29.03 23.11C29.06 22.93 29.04 22.76 28.99 22.59C28.93 22.42 28.84 22.27 28.72 22.15L22.39 15.99L31.12 14.72Z" fill="#DBDBDB" fill-opacity="1.000000" fill-rule="nonzero"/>
			<path id="Vector" d="M61.2 32.4C61.2 32.31 61.2 32.23 61.2 32.15L61.2 32.1C61.18 32.04 61.15 31.98 61.12 31.92L61.09 31.86C61.06 31.8 61.02 31.76 60.98 31.71L60.94 31.66C60.88 31.6 60.81 31.55 60.74 31.5L51.55 25.81C51.3 25.65 51.01 25.6 50.73 25.67C50.45 25.73 50.21 25.91 50.05 26.15C49.9 26.39 49.85 26.69 49.91 26.97C49.98 27.25 50.15 27.49 50.39 27.64L57.89 32.29L29.33 46.58L13.8 32.68L21.21 29.16C21.47 29.03 21.67 28.81 21.77 28.54C21.86 28.27 21.85 27.97 21.72 27.72C21.6 27.46 21.38 27.26 21.11 27.16C20.84 27.07 20.54 27.08 20.28 27.2L11.41 31.42C11.34 31.46 11.26 31.51 11.2 31.57L11.15 31.61C11.09 31.66 11.04 31.72 11 31.78L11 31.83C10.95 31.9 10.91 31.99 10.88 32.07L10.88 32.13C10.87 32.21 10.87 32.28 10.88 32.36C10.88 32.36 10.88 32.36 10.88 32.4L10.88 54.14C10.88 54.3 10.91 54.45 10.98 54.6C11.05 54.74 11.14 54.87 11.26 54.97L28.54 70.3C28.63 70.37 28.73 70.43 28.83 70.47L28.87 70.47C28.98 70.51 29.1 70.53 29.21 70.53C29.29 70.53 29.37 70.53 29.44 70.53L29.49 70.53L29.66 70.47L60.62 55.13C60.8 55.04 60.95 54.89 61.05 54.72C61.15 54.54 61.2 54.34 61.2 54.14L61.2 32.4ZM12.96 34.81L28.07 48.36L28.07 67.15L12.96 53.64L12.96 34.81ZM59.04 53.46L30.24 67.77L30.24 48.54L59.04 34.14L59.04 53.46Z" fill="#DBDBDB" fill-opacity="1.000000" fill-rule="nonzero"/>
		</g>
	</g>
</svg>
