<svg width="72.000000" height="72.000000" viewBox="0 0 72 72" fill="none" xmlns="http://www.w3.org/2000/svg" xmlns:xlink="http://www.w3.org/1999/xlink">
	<desc>
			Created with Pixso.
	</desc>
	<defs>
		<clipPath id="clip10_625">
			<rect id="naming_icon" rx="-0.500000" width="71.000000" height="71.000000" transform="translate(0.500000 0.500000)" fill="white" fill-opacity="0"/>
		</clipPath>
	</defs>
	<g opacity="0.700000">
		<rect id="naming_icon" rx="-0.500000" width="71.000000" height="71.000000" transform="translate(0.500000 0.500000)" fill="#FFFFFF" fill-opacity="0"/>
		<g clip-path="url(#clip10_625)">
			<path id="Vector" d="M46.44 5.75C42.52 5.75 38.69 6.92 35.43 9.09C32.18 11.27 29.64 14.36 28.14 17.98C26.64 21.6 26.25 25.58 27.02 29.42C27.78 33.26 29.67 36.79 32.43 39.56C35.2 42.32 38.73 44.21 42.57 44.97C46.41 45.74 50.39 45.35 54.01 43.85C57.63 42.35 60.72 39.81 62.9 36.56C65.07 33.3 66.24 29.47 66.24 25.55C66.23 20.31 64.14 15.27 60.43 11.56C56.72 7.85 51.68 5.76 46.44 5.75ZM46.44 43.19C42.95 43.19 39.54 42.16 36.63 40.22C33.73 38.28 31.47 35.53 30.14 32.31C28.8 29.08 28.45 25.54 29.13 22.11C29.81 18.69 31.49 15.55 33.96 13.08C36.43 10.61 39.57 8.93 42.99 8.25C46.42 7.57 49.96 7.92 53.19 9.26C56.41 10.59 59.16 12.85 61.1 15.75C63.04 18.66 64.08 22.07 64.08 25.55C64.07 30.23 62.21 34.71 58.9 38.02C55.6 41.33 51.11 43.19 46.44 43.19Z" fill="#DBDBDB" fill-opacity="1.000000" fill-rule="nonzero"/>
			<path id="Vector" d="M18.54 33.07C18.68 33.12 18.82 33.14 18.96 33.13C19.11 33.12 19.25 33.09 19.38 33.02C19.5 32.96 19.62 32.87 19.71 32.76C19.81 32.66 19.88 32.53 19.92 32.39C20.7 30.23 21.96 28.27 23.61 26.67C23.81 26.47 23.92 26.2 23.92 25.92C23.92 25.64 23.81 25.37 23.62 25.17C23.42 24.96 23.16 24.85 22.88 24.84C22.59 24.83 22.32 24.93 22.11 25.12C20.22 26.95 18.77 29.19 17.89 31.68C17.84 31.81 17.81 31.95 17.82 32.1C17.83 32.24 17.86 32.38 17.92 32.51C17.98 32.64 18.07 32.76 18.18 32.85C18.28 32.95 18.41 33.02 18.54 33.07Z" fill="#DBDBDB" fill-opacity="1.000000" fill-rule="nonzero"/>
			<path id="Vector" d="M20.46 46.96C20.66 46.96 20.85 46.91 21.01 46.81C21.18 46.71 21.32 46.57 21.41 46.4C21.5 46.23 21.55 46.04 21.54 45.85C21.54 45.66 21.48 45.47 21.38 45.3C19.93 43.02 19.13 40.39 19.08 37.69C19.07 37.4 18.95 37.13 18.74 36.93C18.54 36.73 18.26 36.62 17.97 36.63C17.69 36.63 17.41 36.75 17.22 36.96C17.02 37.17 16.91 37.44 16.92 37.73C16.98 40.82 17.89 43.84 19.54 46.46C19.64 46.61 19.78 46.74 19.94 46.83C20.1 46.92 20.28 46.96 20.46 46.96Z" fill="#DBDBDB" fill-opacity="1.000000" fill-rule="nonzero"/>
			<path id="Vector" d="M44.58 47.67C42.7 49.61 40.33 51.01 37.72 51.71C37.45 51.78 37.21 51.96 37.07 52.21C36.92 52.46 36.88 52.75 36.96 53.03C37.03 53.3 37.21 53.54 37.46 53.68C37.71 53.83 38 53.87 38.28 53.79C41.27 53 43.98 51.4 46.13 49.17C46.24 49.07 46.32 48.95 46.37 48.82C46.43 48.68 46.46 48.54 46.46 48.39C46.46 48.25 46.43 48.11 46.37 47.97C46.31 47.84 46.23 47.72 46.13 47.62C46.02 47.52 45.9 47.44 45.76 47.39C45.63 47.34 45.49 47.31 45.34 47.32C45.2 47.32 45.05 47.36 44.92 47.42C44.79 47.48 44.67 47.57 44.58 47.67L44.58 47.67Z" fill="#DBDBDB" fill-opacity="1.000000" fill-rule="nonzero"/>
			<path id="Vector" d="M32.4 52.12C29.71 51.86 27.15 50.86 24.99 49.24C24.88 49.16 24.75 49.1 24.61 49.06C24.48 49.03 24.33 49.02 24.19 49.04C24.05 49.06 23.92 49.11 23.8 49.18C23.67 49.25 23.57 49.35 23.48 49.46C23.4 49.57 23.33 49.7 23.3 49.84C23.26 49.98 23.26 50.12 23.28 50.26C23.3 50.4 23.34 50.54 23.42 50.66C23.49 50.78 23.58 50.89 23.7 50.97C26.17 52.83 29.11 53.98 32.19 54.29L32.29 54.29C32.58 54.3 32.86 54.2 33.07 54.01C33.29 53.82 33.41 53.55 33.43 53.26C33.44 52.98 33.34 52.7 33.15 52.48C32.96 52.27 32.69 52.14 32.4 52.13L32.4 52.12Z" fill="#DBDBDB" fill-opacity="1.000000" fill-rule="nonzero"/>
			<path id="Vector" d="M10.4 53C10.18 52.13 10.07 51.24 10.08 50.34C10.08 49.93 10.1 49.51 10.15 49.1C10.18 48.81 10.1 48.52 9.92 48.3C9.83 48.19 9.72 48.09 9.59 48.03C9.47 47.96 9.33 47.91 9.19 47.9C9.05 47.88 8.9 47.89 8.77 47.93C8.63 47.97 8.5 48.04 8.39 48.13C8.16 48.31 8.02 48.57 7.99 48.85C7.94 49.35 7.91 49.85 7.92 50.34C7.91 51.42 8.04 52.49 8.3 53.53C8.36 53.76 8.5 53.97 8.69 54.11C8.88 54.26 9.11 54.34 9.35 54.34C9.52 54.34 9.68 54.3 9.83 54.23C9.98 54.16 10.11 54.06 10.21 53.93C10.31 53.8 10.38 53.64 10.42 53.48C10.45 53.32 10.45 53.15 10.41 52.99L10.4 53Z" fill="#DBDBDB" fill-opacity="1.000000" fill-rule="nonzero"/>
			<path id="Vector" d="M9.83 45.82C10.08 45.95 10.38 45.97 10.64 45.89C10.91 45.8 11.14 45.61 11.27 45.36C11.88 44.2 12.69 43.15 13.68 42.27C13.87 42.08 13.98 41.82 13.99 41.54C14 41.26 13.9 40.99 13.71 40.79C13.53 40.58 13.27 40.46 13 40.43C12.72 40.41 12.45 40.5 12.24 40.67C11.06 41.72 10.08 42.98 9.35 44.38C9.23 44.63 9.2 44.93 9.29 45.2C9.38 45.47 9.58 45.69 9.83 45.82Z" fill="#DBDBDB" fill-opacity="1.000000" fill-rule="nonzero"/>
			<path id="Vector" d="M29.07 57.52C28.2 58.51 27.16 59.33 26 59.94C25.87 60 25.75 60.09 25.66 60.2C25.56 60.31 25.48 60.44 25.44 60.58C25.39 60.72 25.38 60.86 25.39 61.01C25.4 61.15 25.44 61.29 25.51 61.42C25.58 61.55 25.67 61.67 25.78 61.76C25.9 61.85 26.03 61.92 26.17 61.96C26.31 62 26.45 62.01 26.6 61.99C26.74 61.97 26.88 61.92 27.01 61.85C28.4 61.12 29.65 60.14 30.69 58.97C30.88 58.76 30.98 58.47 30.96 58.19C30.94 57.9 30.81 57.63 30.6 57.44C30.38 57.25 30.1 57.15 29.81 57.17C29.53 57.18 29.26 57.32 29.07 57.53L29.07 57.52Z" fill="#DBDBDB" fill-opacity="1.000000" fill-rule="nonzero"/>
			<path id="Vector" d="M14.8 59.3C13.71 58.56 12.77 57.63 12.02 56.55C11.94 56.43 11.83 56.34 11.71 56.26C11.6 56.18 11.46 56.13 11.32 56.11C11.18 56.08 11.04 56.08 10.9 56.12C10.76 56.15 10.63 56.2 10.51 56.28C10.4 56.37 10.3 56.47 10.22 56.59C10.15 56.71 10.09 56.84 10.07 56.98C10.02 57.26 10.08 57.55 10.25 57.79C11.15 59.08 12.28 60.2 13.57 61.09C13.69 61.17 13.82 61.23 13.96 61.27C14.1 61.3 14.25 61.31 14.39 61.28C14.54 61.26 14.67 61.21 14.79 61.13C14.92 61.05 15.02 60.95 15.1 60.83C15.19 60.71 15.24 60.58 15.27 60.43C15.3 60.29 15.3 60.15 15.27 60C15.24 59.86 15.19 59.73 15.11 59.61C15.02 59.49 14.92 59.39 14.8 59.31L14.8 59.3Z" fill="#DBDBDB" fill-opacity="1.000000" fill-rule="nonzero"/>
			<path id="Vector" d="M22.27 61.12C20.97 61.27 19.65 61.2 18.37 60.89C18.09 60.83 17.8 60.87 17.55 61.02C17.31 61.17 17.13 61.41 17.06 61.69C16.99 61.97 17.04 62.26 17.19 62.51C17.34 62.75 17.58 62.93 17.86 63C19.39 63.36 20.97 63.45 22.53 63.26C22.82 63.23 23.08 63.08 23.26 62.85C23.43 62.62 23.51 62.33 23.48 62.05C23.44 61.76 23.29 61.5 23.07 61.32C22.84 61.15 22.55 61.07 22.26 61.1L22.27 61.12Z" fill="#DBDBDB" fill-opacity="1.000000" fill-rule="nonzero"/>
		</g>
	</g>
</svg>
