<svg width="72.000000" height="72.000000" viewBox="0 0 72 72" fill="none" xmlns="http://www.w3.org/2000/svg" xmlns:xlink="http://www.w3.org/1999/xlink">
	<desc>
			Created with Pixso.
	</desc>
	<defs>
		<clipPath id="clip10_649">
			<rect id="seo_icon" rx="-0.500000" width="71.000000" height="71.000000" transform="translate(0.500000 0.500000)" fill="white" fill-opacity="0"/>
		</clipPath>
	</defs>
	<rect id="seo_icon" rx="-0.500000" width="71.000000" height="71.000000" transform="translate(0.500000 0.500000)" fill="#FFFFFF" fill-opacity="0"/>
	<g clip-path="url(#clip10_649)">
		<path id="Vector" d="M36 37.43C32.27 37.44 28.7 38.92 26.07 41.55C23.44 44.18 21.96 47.75 21.96 51.48C21.96 51.76 22.07 52.04 22.27 52.24C22.47 52.44 22.75 52.56 23.04 52.56L48.96 52.56C49.24 52.56 49.52 52.44 49.72 52.24C49.92 52.04 50.04 51.76 50.04 51.48C50.03 47.75 48.55 44.18 45.92 41.55C43.29 38.92 39.72 37.44 36 37.43ZM24.17 50.39C24.43 47.44 25.79 44.69 27.98 42.68C30.17 40.68 33.03 39.57 36 39.57C38.97 39.57 41.83 40.68 44.02 42.68C46.21 44.69 47.57 47.44 47.83 50.39L24.17 50.39Z" fill="#DBDBDB" fill-opacity="1.000000" fill-rule="nonzero"/>
		<path id="Vector" d="M35.28 34.2C36.91 34.2 38.51 33.71 39.88 32.8C41.24 31.89 42.3 30.6 42.92 29.08C43.55 27.57 43.72 25.91 43.4 24.3C43.08 22.69 42.29 21.22 41.13 20.06C39.97 18.9 38.5 18.11 36.89 17.79C35.28 17.48 33.62 17.64 32.11 18.27C30.59 18.89 29.3 19.95 28.39 21.31C27.48 22.68 27 24.28 27 25.91C27 28.11 27.87 30.22 29.42 31.77C30.97 33.32 33.08 34.19 35.28 34.2ZM35.28 19.8C36.49 19.8 37.67 20.15 38.68 20.83C39.68 21.5 40.47 22.46 40.93 23.57C41.39 24.69 41.51 25.92 41.28 27.11C41.04 28.3 40.46 29.39 39.6 30.24C38.75 31.1 37.66 31.68 36.47 31.92C35.28 32.15 34.05 32.03 32.93 31.57C31.81 31.11 30.86 30.32 30.19 29.32C29.51 28.31 29.15 27.13 29.15 25.91C29.16 24.29 29.8 22.74 30.95 21.59C32.1 20.44 33.65 19.8 35.28 19.8Z" fill="#DBDBDB" fill-opacity="1.000000" fill-rule="nonzero"/>
		<path id="Vector" d="M69.84 34.56L66.2 34.56C65.84 26.92 62.59 19.7 57.12 14.35C51.65 9.01 44.36 5.94 36.72 5.76L36.72 1.8C36.72 1.51 36.6 1.23 36.4 1.03C36.2 0.83 35.92 0.72 35.64 0.72C35.35 0.72 35.07 0.83 34.87 1.03C34.67 1.23 34.56 1.51 34.56 1.8L34.56 5.79C27.04 6.16 19.94 9.31 14.62 14.62C9.31 19.94 6.16 27.04 5.79 34.56L2.16 34.56C1.87 34.56 1.59 34.67 1.39 34.87C1.19 35.07 1.08 35.35 1.08 35.64C1.08 35.92 1.19 36.2 1.39 36.4C1.59 36.6 1.87 36.72 2.16 36.72L5.76 36.72C5.94 44.36 9.01 51.65 14.35 57.12C19.7 62.59 26.92 65.84 34.56 66.2L34.56 70.2C34.56 70.48 34.67 70.76 34.87 70.96C35.07 71.16 35.35 71.28 35.64 71.28C35.92 71.28 36.2 71.16 36.4 70.96C36.6 70.76 36.72 70.48 36.72 70.2L36.72 66.24C44.49 66.05 51.89 62.88 57.39 57.39C62.88 51.89 66.05 44.49 66.24 36.72L69.84 36.72C70.12 36.72 70.4 36.6 70.6 36.4C70.8 36.2 70.92 35.92 70.92 35.64C70.92 35.35 70.8 35.07 70.6 34.87C70.4 34.67 70.12 34.56 69.84 34.56ZM36.72 64.08L36.72 60.84C36.72 60.55 36.6 60.27 36.4 60.07C36.2 59.87 35.92 59.76 35.64 59.76C35.35 59.76 35.07 59.87 34.87 60.07C34.67 60.27 34.56 60.55 34.56 60.84L34.56 64.04C27.49 63.68 20.82 60.66 15.88 55.6C10.94 50.53 8.1 43.79 7.92 36.72L11.52 36.72C11.8 36.72 12.08 36.6 12.28 36.4C12.48 36.2 12.6 35.92 12.6 35.64C12.6 35.35 12.48 35.07 12.28 34.87C12.08 34.67 11.8 34.56 11.52 34.56L7.95 34.56C8.32 27.62 11.24 21.06 16.15 16.15C21.06 11.24 27.62 8.32 34.56 7.95L34.56 11.16C34.56 11.44 34.67 11.72 34.87 11.92C35.07 12.12 35.35 12.24 35.64 12.24C35.92 12.24 36.2 12.12 36.4 11.92C36.6 11.72 36.72 11.44 36.72 11.16L36.72 7.92C43.79 8.1 50.53 10.94 55.6 15.88C60.66 20.82 63.68 27.49 64.04 34.56L60.48 34.56C60.19 34.56 59.91 34.67 59.71 34.87C59.51 35.07 59.4 35.35 59.4 35.64C59.4 35.92 59.51 36.2 59.71 36.4C59.91 36.6 60.19 36.72 60.48 36.72L64.08 36.72C63.89 43.91 60.95 50.77 55.86 55.86C50.77 60.95 43.91 63.89 36.72 64.08Z" fill="#DBDBDB" fill-opacity="1.000000" fill-rule="nonzero"/>
	</g>
</svg>
