<svg width="72.000000" height="72.000000" viewBox="0 0 72 72" fill="none" xmlns="http://www.w3.org/2000/svg" xmlns:xlink="http://www.w3.org/1999/xlink">
	<desc>
			Created with Pixso.
	</desc>
	<defs>
		<clipPath id="clip11_783">
			<rect id="smm_icon" rx="-0.500000" width="71.000000" height="71.000000" transform="translate(0.500000 0.500000)" fill="white" fill-opacity="0"/>
		</clipPath>
	</defs>
	<g opacity="0.700000">
		<rect id="smm_icon" rx="-0.500000" width="71.000000" height="71.000000" transform="translate(0.500000 0.500000)" fill="#FFFFFF" fill-opacity="0"/>
		<g clip-path="url(#clip11_783)">
			<path id="Vector" d="M55.35 35.94C55.27 35.74 55.13 35.57 54.95 35.46C54.77 35.34 54.57 35.28 54.36 35.27L41.92 35.27L49.12 6.03C49.17 5.8 49.15 5.56 49.05 5.35C48.95 5.14 48.79 4.96 48.58 4.85C48.38 4.74 48.14 4.69 47.91 4.73C47.68 4.76 47.46 4.87 47.3 5.04L16.87 35.59C16.72 35.74 16.62 35.94 16.58 36.14C16.54 36.35 16.56 36.57 16.64 36.77C16.72 36.97 16.86 37.13 17.04 37.25C17.21 37.37 17.42 37.43 17.64 37.43L30.07 37.43L22.87 66.68C22.82 66.91 22.84 67.15 22.94 67.36C23.04 67.58 23.2 67.75 23.41 67.86C23.61 67.98 23.85 68.02 24.08 67.98C24.31 67.95 24.53 67.84 24.69 67.68L55.12 37.12C55.27 36.97 55.37 36.77 55.41 36.56C55.45 36.35 55.43 36.13 55.35 35.94ZM25.91 63.42L32.51 36.61C32.55 36.45 32.55 36.29 32.52 36.13C32.48 35.97 32.41 35.81 32.31 35.69C32.21 35.56 32.08 35.45 31.93 35.38C31.78 35.31 31.62 35.27 31.45 35.27L20.23 35.27L46.08 9.29L39.49 36.1C39.46 36.25 39.45 36.42 39.49 36.58C39.52 36.74 39.59 36.89 39.69 37.02C39.79 37.15 39.92 37.25 40.07 37.32C40.21 37.4 40.37 37.43 40.54 37.43L51.76 37.43L25.91 63.42Z" fill="#DBDBDB" fill-opacity="1.000000" fill-rule="nonzero"/>
			<path id="Vector" d="M51.16 49.63C50.95 49.44 50.68 49.34 50.4 49.34C50.12 49.35 49.86 49.46 49.66 49.66C49.46 49.86 49.35 50.12 49.34 50.4C49.34 50.68 49.44 50.95 49.63 51.16L58.27 59.8C58.48 59.99 58.75 60.09 59.03 60.09C59.31 60.08 59.57 59.97 59.77 59.77C59.97 59.57 60.08 59.31 60.09 59.03C60.09 58.75 59.99 58.48 59.8 58.27L51.16 49.63Z" fill="#DBDBDB" fill-opacity="1.000000" fill-rule="nonzero"/>
			<path id="Vector" d="M20.16 21.96C20.37 21.96 20.58 21.89 20.75 21.77C20.93 21.65 21.07 21.49 21.15 21.29C21.23 21.09 21.25 20.87 21.21 20.66C21.17 20.46 21.07 20.26 20.92 20.11L12.28 11.47C12.07 11.28 11.8 11.18 11.52 11.18C11.24 11.19 10.98 11.3 10.78 11.5C10.58 11.7 10.47 11.96 10.46 12.24C10.46 12.52 10.56 12.79 10.75 13L19.39 21.64C19.59 21.84 19.87 21.96 20.16 21.96Z" fill="#DBDBDB" fill-opacity="1.000000" fill-rule="nonzero"/>
			<path id="Vector" d="M49.27 21.28C49.47 21.48 49.75 21.59 50.04 21.59C50.32 21.59 50.6 21.48 50.8 21.28L59.44 12.64C59.63 12.43 59.73 12.16 59.73 11.88C59.72 11.6 59.61 11.34 59.41 11.14C59.21 10.94 58.95 10.83 58.67 10.82C58.39 10.82 58.12 10.92 57.91 11.11L49.27 19.75C49.07 19.95 48.96 20.23 48.96 20.52C48.96 20.8 49.07 21.08 49.27 21.28Z" fill="#DBDBDB" fill-opacity="1.000000" fill-rule="nonzero"/>
			<path id="Vector" d="M19.75 49.99L11.11 58.63C11.01 58.73 10.92 58.85 10.86 58.98C10.8 59.12 10.77 59.26 10.77 59.4C10.77 59.55 10.79 59.69 10.85 59.83C10.9 59.96 10.98 60.08 11.08 60.19C11.19 60.29 11.31 60.37 11.44 60.42C11.58 60.48 11.72 60.5 11.87 60.5C12.01 60.5 12.16 60.47 12.29 60.41C12.42 60.35 12.54 60.26 12.64 60.16L21.28 51.52C21.47 51.31 21.57 51.04 21.57 50.76C21.56 50.48 21.45 50.22 21.25 50.02C21.05 49.82 20.79 49.71 20.51 49.7C20.23 49.7 19.96 49.8 19.75 49.99Z" fill="#DBDBDB" fill-opacity="1.000000" fill-rule="nonzero"/>
			<path id="Vector" d="M15.12 45C15.12 45.99 14.31 46.8 13.32 46.8C12.32 46.8 11.52 45.99 11.52 45C11.52 44 12.32 43.2 13.32 43.2C14.31 43.2 15.12 44 15.12 45Z" fill="#DBDBDB" fill-opacity="1.000000" fill-rule="evenodd"/>
			<path id="Vector" d="M8.64 39.96C8.64 40.95 7.83 41.76 6.84 41.76C5.84 41.76 5.04 40.95 5.04 39.96C5.04 38.96 5.84 38.16 6.84 38.16C7.83 38.16 8.64 38.96 8.64 39.96Z" fill="#DBDBDB" fill-opacity="1.000000" fill-rule="evenodd"/>
			<path id="Vector" d="M66.24 30.59C66.24 31.59 65.43 32.39 64.44 32.39C63.44 32.39 62.64 31.59 62.64 30.59C62.64 29.6 63.44 28.79 64.44 28.79C65.43 28.79 66.24 29.6 66.24 30.59Z" fill="#DBDBDB" fill-opacity="1.000000" fill-rule="evenodd"/>
			<path id="Vector" d="M24.48 12.59C24.48 13.59 23.67 14.39 22.68 14.39C21.68 14.39 20.88 13.59 20.88 12.59C20.88 11.6 21.68 10.79 22.68 10.79C23.67 10.79 24.48 11.6 24.48 12.59Z" fill="#DBDBDB" fill-opacity="1.000000" fill-rule="evenodd"/>
		</g>
	</g>
</svg>
