<svg width="72.000000" height="72.000000" viewBox="0 0 72 72" fill="none" xmlns="http://www.w3.org/2000/svg" xmlns:xlink="http://www.w3.org/1999/xlink">
	<desc>
			Created with Pixso.
	</desc>
	<defs>
		<clipPath id="clip10_640">
			<rect id="ux_icon" rx="-0.500000" width="71.000000" height="71.000000" transform="translate(0.500000 0.500000)" fill="white" fill-opacity="0"/>
		</clipPath>
	</defs>
	<g opacity="0.700000">
		<rect id="ux_icon" rx="-0.500000" width="71.000000" height="71.000000" transform="translate(0.500000 0.500000)" fill="#FFFFFF" fill-opacity="0"/>
		<g clip-path="url(#clip10_640)">
			<path id="Vector" d="M18.72 15.12L14.4 15.12C14.11 15.12 13.83 15.23 13.63 15.43C13.43 15.63 13.32 15.91 13.32 16.2C13.32 16.48 13.43 16.76 13.63 16.96C13.83 17.16 14.11 17.28 14.4 17.28L18.72 17.28C19 17.28 19.28 17.16 19.48 16.96C19.68 16.76 19.79 16.48 19.79 16.2C19.79 15.91 19.68 15.63 19.48 15.43C19.28 15.23 19 15.12 18.72 15.12Z" fill="#DBDBDB" fill-opacity="1.000000" fill-rule="nonzero"/>
			<path id="Vector" d="M28.8 15.12L24.48 15.12C24.19 15.12 23.91 15.23 23.71 15.43C23.51 15.63 23.4 15.91 23.4 16.2C23.4 16.48 23.51 16.76 23.71 16.96C23.91 17.16 24.19 17.28 24.48 17.28L28.8 17.28C29.08 17.28 29.36 17.16 29.56 16.96C29.76 16.76 29.88 16.48 29.88 16.2C29.88 15.91 29.76 15.63 29.56 15.43C29.36 15.23 29.08 15.12 28.8 15.12Z" fill="#DBDBDB" fill-opacity="1.000000" fill-rule="nonzero"/>
			<path id="Vector" d="M62.23 19.43L60.48 19.43L60.48 13.72C60.47 12.75 60.09 11.83 59.41 11.14C58.72 10.46 57.8 10.08 56.83 10.08L12.28 10.08C11.31 10.08 10.39 10.46 9.7 11.14C9.02 11.83 8.64 12.75 8.64 13.72L8.64 42.43C8.64 43.4 9.02 44.32 9.7 45.01C10.39 45.69 11.31 46.07 12.28 46.08L15.12 46.08L15.12 54.31C15.12 55.18 15.46 56.02 16.08 56.63C16.69 57.25 17.53 57.59 18.4 57.6L28.39 57.6C29.26 57.59 30.1 57.25 30.71 56.63C31.33 56.02 31.67 55.18 31.67 54.31L31.67 46.08L36.72 46.08L36.72 54.31C36.72 55.18 37.06 56.02 37.68 56.63C38.29 57.25 39.13 57.59 40 57.6L62.23 57.6C63.1 57.59 63.94 57.25 64.55 56.63C65.17 56.02 65.51 55.18 65.51 54.31L65.51 22.72C65.51 21.85 65.17 21.01 64.55 20.4C63.94 19.78 63.1 19.44 62.23 19.43ZM28.39 55.43L18.4 55.43C18.1 55.43 17.82 55.31 17.61 55.1C17.4 54.89 17.28 54.61 17.28 54.31L17.28 32.8C17.28 32.5 17.4 32.22 17.61 32.01C17.82 31.8 18.1 31.68 18.4 31.68L28.39 31.68C28.69 31.68 28.97 31.8 29.18 32.01C29.39 32.22 29.51 32.5 29.52 32.8L29.52 44.99L29.52 54.31C29.51 54.61 29.39 54.89 29.18 55.1C28.97 55.31 28.69 55.43 28.39 55.43ZM31.67 43.91L31.67 32.8C31.67 31.93 31.33 31.09 30.71 30.48C30.1 29.86 29.26 29.52 28.39 29.52L18.4 29.52C17.53 29.52 16.69 29.86 16.08 30.48C15.46 31.09 15.12 31.93 15.12 32.8L15.12 43.91L12.28 43.91C11.88 43.91 11.51 43.76 11.23 43.48C10.95 43.2 10.8 42.83 10.8 42.43L10.8 13.72C10.8 13.33 10.95 12.95 11.23 12.67C11.51 12.39 11.88 12.24 12.28 12.24L56.83 12.24C57.23 12.24 57.6 12.39 57.88 12.67C58.16 12.95 58.32 13.33 58.32 13.72L58.32 19.43L40 19.43C39.13 19.44 38.29 19.78 37.68 20.4C37.06 21.01 36.72 21.85 36.72 22.72L36.72 43.91L31.67 43.91ZM63.36 54.31C63.35 54.61 63.23 54.89 63.02 55.1C62.81 55.31 62.53 55.43 62.23 55.43L40 55.43C39.7 55.43 39.42 55.31 39.21 55.1C39 54.89 38.88 54.61 38.88 54.31L38.88 22.72C38.88 22.42 39 22.14 39.21 21.93C39.42 21.72 39.7 21.6 40 21.6L62.23 21.6C62.53 21.6 62.81 21.72 63.02 21.93C63.23 22.14 63.35 22.42 63.36 22.72L63.36 54.31Z" fill="#DBDBDB" fill-opacity="1.000000" fill-rule="nonzero"/>
			<path id="Vector" d="M52.91 51.11C52.92 52.1 52.11 52.91 51.12 52.92C50.13 52.92 49.32 52.12 49.31 51.12C49.31 50.13 50.11 49.32 51.11 49.32C52.1 49.31 52.91 50.12 52.91 51.11Z" fill="#DBDBDB" fill-opacity="1.000000" fill-rule="evenodd"/>
		</g>
	</g>
</svg>
